<?xml version="1.0" encoding="UTF-8"?>
<svg width="1200pt" height="1200pt" version="1.1" viewBox="0 0 1200 1200" xmlns="http://www.w3.org/2000/svg">
 <path d="m494.85 0.16797c-8.707-0.054688-17.527 0.79297-26.367 2.5625-70.738 14.164-117.14 83.73-102.98 154.47 11.602 57.93 60.477 99.129 116.6 104.59l12.16 60.793c-72.062 24.688-128.14 83.883-148.61 157.76l-66.137-33.328c3.0859-39.684-17.449-79.484-54.934-98.289-12.324-6.1836-25.336-9.5234-38.379-10.328-39.129-2.418-78.133 18.176-96.68 55.152-24.73 49.297-4.4727 110.4 44.824 135.13 37.43 18.773 81.594 11.527 111.55-14.578l91.992 46.219c5.25 66.156 38.473 124.63 87.816 163.62l-42.336 158.35c-73.371-4.0039-142.66 43.945-162.38 117.55-22.602 84.348 28.078 172 112.43 194.61 84.344 22.602 172-28.082 194.61-112.43 18.777-70.086-13.488-141.88-73.172-177.32l38.523-143.7c23.738 8.25 49.113 12.965 75.586 12.965 48.426 0 93.457-15.051 130.74-40.648l120.92 120.92c-26.648 49.719-19.656 113.2 22.121 154.98 51.012 51.012 134.73 51.012 185.74 0 51.012-51.012 51.012-134.73 0-185.74-25.504-25.508-59.008-38.16-92.723-38.16-21.43 0-42.617 5.7656-61.961 16.039l-119.97-119.97c29.434-38.902 47.094-87.152 47.094-139.45 0-34.059-7.6445-66.316-20.945-95.508l147.58-147.8c49.789 26.648 113.42 19.656 155.2-22.121 51.012-51.012 51.012-135.02 0-186.04-25.508-25.504-59.305-38.23-93.016-38.23-33.715 0-67.512 12.727-93.02 38.234-41.734 41.734-48.746 105.28-22.191 155.05l-137.33 137.33c-42.344-44.742-102.08-72.875-168.24-72.875h-0.58594l-12.672-63.062c49.652-26.703 79.109-83.383 67.531-141.21-12.395-61.895-67.445-105.18-128.39-105.54z" fill="#5993fb"/>
</svg>
